<svg xmlns="http://www.w3.org/2000/svg" version="1.1" viewBox="-5.0 -10.0 110.0 135.0">
 <path d="m20.832 67.707c-6.3203 0-11.457 5.1367-11.457 11.457 0 6.3203 5.1367 11.457 11.457 11.457 6.3203 0 11.457-5.1367 11.457-11.457 0-6.3203-5.1367-11.457-11.457-11.457zm0 16.668c-2.8711 0-5.207-2.3359-5.207-5.207 0-2.8711 2.3359-5.207 5.207-5.207 2.8711 0 5.207 2.3359 5.207 5.207 0 2.8711-2.3359 5.207-5.207 5.207zm58.336-75c-6.3203 0-11.457 5.1367-11.457 11.457 0 6.3203 3.5156 12.023 9.1836 14.855l0.87891 0.4375c0.4375 0.22266 0.92187 0.32812 1.3945 0.32812 0.47656 0 0.95703-0.10938 1.3945-0.32812l0.87891-0.4375c5.6641-2.832 9.1836-8.5234 9.1836-14.855 0-6.3281-5.1367-11.457-11.457-11.457zm0 20.445c-3.2266-1.8477-5.207-5.2383-5.207-8.9883 0-2.8711 2.3359-5.207 5.207-5.207 2.8711 0 5.207 2.3359 5.207 5.207 0 3.75-1.9844 7.1406-5.207 8.9883zm3.125 34.762c0 9.7617-7.9453 17.707-17.707 17.707h-22.918c-1.7266 0-3.125-1.3984-3.125-3.125 0-1.7266 1.3984-3.125 3.125-3.125h22.918c6.3203 0 11.457-5.1367 11.457-11.457 0-6.3203-5.1367-11.457-11.457-11.457h-29.168c-9.7617 0-17.707-7.9453-17.707-17.707s7.9453-17.707 17.707-17.707h22.918c1.7266 0 3.125 1.3984 3.125 3.125 0 1.7266-1.3984 3.125-3.125 3.125h-22.918c-6.3203 0-11.457 5.1367-11.457 11.457 0 6.3203 5.1367 11.457 11.457 11.457h29.168c9.7617 0 17.707 7.9453 17.707 17.707z"/>
</svg>